<svg t="1769431141489" class="icon" viewBox="0 0 1024 1024" version="1.1" xmlns="http://www.w3.org/2000/svg" p-id="4716"
     width="15" height="15">
    <path d="M0 0h1024v1024H0V0z" fill="#202425" opacity=".01" p-id="4717"></path>
    <path d="M307.2 853.333333a34.133333 34.133333 0 0 1 34.133333-34.133333h341.333334a34.133333 34.133333 0 0 1 34.133333 34.133333v102.4a34.133333 34.133333 0 0 1-34.133333 34.133334H341.333333a34.133333 34.133333 0 0 1-34.133333-34.133334v-102.4z"
          fill="#FFAA44" p-id="4718"></path>
    <path d="M375.466667 716.8H256a221.866667 221.866667 0 0 1-23.6544-442.4704l8.635733-0.750933a273.1008 273.1008 0 0 1 542.037334 0l0.8192 0.034133A221.866667 221.866667 0 0 1 768 716.8H648.533333a34.133333 34.133333 0 0 1-34.133333-34.133333v-119.466667a17.066667 17.066667 0 0 1 17.066667-17.066667h68.676266a16.145067 16.145067 0 0 0 12.629334-6.280533 19.182933 19.182933 0 0 0 0.341333-23.108267l-2.116267-2.321066-177.322666-164.420267a31.3344 31.3344 0 0 0-40.106667-2.628267l-3.242667 2.628267-177.322666 164.420267a18.670933 18.670933 0 0 0-5.802667 13.687466c0 8.874667 5.905067 16.213333 13.653333 17.749334l3.003734 0.273066H392.533333a17.066667 17.066667 0 0 1 17.066667 17.066667V682.666667a34.133333 34.133333 0 0 1-34.133333 34.133333z"
          fill="#11AA66" p-id="4719"></path>
</svg>