<svg t="1769053384406" class="icon" viewBox="0 0 1024 1024" version="1.1" xmlns="http://www.w3.org/2000/svg" p-id="2000"
     width="40" height="40">
    <path d="M0 0h1024v1024H0V0z" fill="#202425" opacity=".01" p-id="2001"></path>
    <path d="M102.4 68.266667a34.133333 34.133333 0 0 0-34.133333 34.133333v341.333333a34.133333 34.133333 0 0 0 34.133333 34.133334h819.2a34.133333 34.133333 0 0 0 34.133333-34.133334V102.4a34.133333 34.133333 0 0 0-34.133333-34.133333H102.4z m0 477.866666a34.133333 34.133333 0 0 0-34.133333 34.133334v341.333333a34.133333 34.133333 0 0 0 34.133333 34.133333h819.2a34.133333 34.133333 0 0 0 34.133333-34.133333V580.266667a34.133333 34.133333 0 0 0-34.133333-34.133334H102.4z"
          fill="#11AA66" p-id="2002"></path>
    <path d="M102.4 68.266667a34.133333 34.133333 0 0 0-34.133333 34.133333v341.333333a34.133333 34.133333 0 0 0 34.133333 34.133334h102.4V68.266667H102.4z m0 477.866666a34.133333 34.133333 0 0 0-34.133333 34.133334v341.333333a34.133333 34.133333 0 0 0 34.133333 34.133333h102.4V546.133333H102.4z"
          fill="#FFAA44" p-id="2003"></path>
    <path d="M307.2 221.866667a17.066667 17.066667 0 0 1 34.133333 0v102.4a17.066667 17.066667 0 0 1-34.133333 0v-102.4z m102.4 0a17.066667 17.066667 0 0 1 34.133333 0v102.4a17.066667 17.066667 0 0 1-34.133333 0v-102.4z m119.466667-17.066667a17.066667 17.066667 0 0 0-17.066667 17.066667v102.4a17.066667 17.066667 0 0 0 34.133333 0v-102.4a17.066667 17.066667 0 0 0-17.066666-17.066667zM819.2 273.066667a34.133333 34.133333 0 1 1-68.266667 0 34.133333 34.133333 0 0 1 68.266667 0zM307.2 699.733333a17.066667 17.066667 0 0 1 34.133333 0v102.4a17.066667 17.066667 0 0 1-34.133333 0v-102.4z m102.4 0a17.066667 17.066667 0 0 1 34.133333 0v102.4a17.066667 17.066667 0 0 1-34.133333 0v-102.4z m119.466667-17.066666a17.066667 17.066667 0 0 0-17.066667 17.066666v102.4a17.066667 17.066667 0 0 0 34.133333 0v-102.4a17.066667 17.066667 0 0 0-17.066666-17.066666z m290.133333 68.266666a34.133333 34.133333 0 1 1-68.266667 0 34.133333 34.133333 0 0 1 68.266667 0z"
          fill="#FFFFFF" p-id="2004"></path>
</svg>