<svg t="1769431294614" class="icon" viewBox="0 0 1024 1024" version="1.1" xmlns="http://www.w3.org/2000/svg" p-id="9712"
     width="15" height="15">
    <path d="M512.576 0.64a499.2 499.2 0 0 1 198.592 39.808 513.28 513.28 0 0 1 162.816 109.696 513.92 513.92 0 0 1 109.568 163.008c26.56 62.208 39.808 128.448 39.808 198.848s-13.248 136.64-39.808 198.784a513.92 513.92 0 0 1-109.568 163.008 513.28 513.28 0 0 1-162.816 109.696 499.2 499.2 0 0 1-198.592 39.872 503.424 503.424 0 0 1-199.168-39.872 504.704 504.704 0 0 1-162.88-109.696 527.232 527.232 0 0 1-109.504-163.008A494.464 494.464 0 0 1 0.576 512c0-70.4 13.44-136.64 40.448-198.848a527.232 527.232 0 0 1 109.504-163.008A504.704 504.704 0 0 1 313.408 40.448 503.424 503.424 0 0 1 512.576 0.64z"
          fill="#F25829" p-id="9713"></path>
    <path d="M736.32 584.704c22.656 0 41.6-7.04 56.832-21.12 15.232-14.08 22.848-32.064 22.848-53.952 0-22.656-7.616-40.32-22.848-52.8-15.232-12.48-34.176-18.752-56.832-18.752h-448.64c-22.72 0-41.6 6.272-56.896 18.752-15.232 12.544-22.848 30.08-22.848 52.8 0 21.888 7.68 39.872 22.848 53.952 15.232 14.08 34.176 21.12 56.832 21.12h448.704z"
          fill="#FFFFFF" p-id="9714"></path>
</svg>