<?xml version="1.0" standalone="no"?><!DOCTYPE svg PUBLIC "-//W3C//DTD SVG 1.1//EN" "http://www.w3.org/Graphics/SVG/1.1/DTD/svg11.dtd"><svg t="1724378173862" class="icon" viewBox="0 0 1112 1024" version="1.1" xmlns="http://www.w3.org/2000/svg" p-id="8895" data-spm-anchor-id="a313x.search_index.0.i14.f4353a817ON3kQ" xmlns:xlink="http://www.w3.org/1999/xlink" width="16.2890625" height="15"><path d="M585.93914487 94.12171026c-225.59210513 0-408.55263162 182.96052649-408.55263163 408.55263163 0 28.42105298 2.88651325 60.39473675 8.4375 87.26151324 20.42763162-3.77467136 88.14967136-28.42105298 102.13815812-32.86184188-3.10855297-17.54111838-4.88486838-35.74835513-4.88486838-54.17763163 0-167.41776325 135.66611838-303.08388162 303.08388162-303.08388162s303.08388162 135.66611838 303.0838808 303.08388162-135.66611838 303.08388162-303.0838808 303.08388163c-34.19407864 0-67.05592136-5.77302649-97.6973692-16.20888163-0.44407864 0.88815811-35.30427649 74.38322351-41.74342053 97.03125 43.51973676 15.76480298 90.3700654 24.42434189 139.44078973 24.42434189 225.59210513 0 408.55263162-182.96052649 408.5526308-408.55263162s-183.1825654-408.55263162-408.77467053-408.55263162z" fill="#efb336" p-id="8896" data-spm-anchor-id="a313x.search_index.0.i13.f4353a817ON3kQ" class="selected"></path><path d="M96.7861846 598.59539487l294.42434189-78.37993461L292.18092136 725.15789487z" fill="#efb336" p-id="8897"></path></svg>