<?xml version="1.0" standalone="no"?><!DOCTYPE svg PUBLIC "-//W3C//DTD SVG 1.1//EN" "http://www.w3.org/Graphics/SVG/1.1/DTD/svg11.dtd"><svg t="1724372999208" class="icon" viewBox="0 0 1024 1024" version="1.1" xmlns="http://www.w3.org/2000/svg" p-id="5021" width="15" height="15" xmlns:xlink="http://www.w3.org/1999/xlink"><path d="M515.311 956.738c-59.938 0-118.089-11.739-172.84-34.894-52.876-22.363-100.357-54.373-141.125-95.14-40.77-40.771-72.779-88.252-95.141-141.126-23.153-54.747-34.893-112.898-34.893-172.84 0-59.941 11.74-118.093 34.893-172.84 22.361-52.875 54.371-100.356 95.141-141.125 40.77-40.769 88.25-72.779 141.125-95.141 54.746-23.153 112.898-34.893 172.84-34.893 59.943 0 118.096 11.74 172.843 34.893 52.875 22.362 100.355 54.373 141.126 95.141 40.771 40.772 72.78 88.254 95.138 141.125 23.154 54.75 34.896 112.902 34.896 172.841 0 59.938-11.741 118.091-34.896 172.841-22.358 52.873-54.368 100.354-95.138 141.126-40.769 40.767-88.249 72.776-141.126 95.14-54.752 23.153-112.905 34.892-172.843 34.892z m0-778.647c-184.552 0-334.697 150.122-334.697 334.647 0 184.526 150.145 334.648 334.697 334.648 184.555 0 334.701-150.122 334.701-334.648 0-184.525-150.147-334.647-334.701-334.647z" fill="#20ae08" p-id="5022"></path><path d="M642.863 541.624L465.189 652.961l-0.127-0.17a38.689 38.689 0 0 1-3.944 2.12c-0.087 0.043-0.087 0.043-0.171 0.043-1.314 0.635-2.713 1.146-4.156 1.57-0.086 0.04-0.17 0.04-0.298 0.04a15.41 15.41 0 0 1-1.909 0.511c-0.084 0.042-0.168 0.042-0.338 0.084-0.679 0.128-1.399 0.256-2.078 0.382-0.085 0-0.254 0.043-0.34 0.043-0.636 0.084-1.229 0.17-1.866 0.212-0.168 0-0.339 0.043-0.551 0.043-0.721 0-1.441 0.042-2.207 0.042-18.448 0-33.462-14.974-33.462-33.465V401.104c0-18.493 15.014-33.508 33.462-33.508 7.042 0 13.532 2.164 18.919 5.811l176.444 110.279a33.437 33.437 0 0 1 16.796 29.053 33.465 33.465 0 0 1-16.5 28.885" fill="#20ae08" p-id="5023"></path></svg>