<svg t="1767059116078" class="icon" viewBox="0 0 1071 1024" version="1.1" xmlns="http://www.w3.org/2000/svg" p-id="4849"
     width="16" height="16">
    <path d="M1057.756543 566.281052a44.505707 44.505707 0 0 1-62.953323 0L535.326296 108.094795 150.99726 491.311188h27.927332a89.011415 89.011415 0 0 1 89.011414 89.011415v47.287314l0.244782 268.057876c3.004135 28.817446 13.173689 36.828473 44.950764 39.076011 39.276287-2.892871 43.571088-14.976171 43.971639-64.17723l-0.15577-113.06675a89.011415 89.011415 0 0 1 89.011415-88.165806h44.505707v-1.09039l89.011415-0.133517v1.223907h44.505708a89.011415 89.011415 0 0 1 89.011414 89.011415v47.287314h0.15577v56.010432l0.133517-14.953917c0 69.718191-0.445057 84.560844 44.105156 87.921025 37.451553-2.981882 43.660099-14.442102 44.639225-57.85742l-0.400551 58.346982h0.667585v-73.92398c0 5.629972 0 10.770381-0.178023 15.576998l0.178023-26.102597-0.289287-272.352677a44.505707 44.505707 0 0 1 89.011415 0l0.31154 309.314667h-0.31154V934.988585a89.011415 89.011415 0 0 1-89.011415 89.011415h-89.011415a88.833392 88.833392 0 0 1-88.655369-85.450958L624.159688 823.724317l-0.378298-17.668766c0.15577 2.358802 0.267034 5.029145 0.378298 7.610476L623.981666 756.965756h-24.47814l23.120715 0.15577 1.068137 48.956278c-2.737101-39.165023-13.551988-47.287314-53.896411-48.956278h-73.634693c-37.362541 1.891493-47.376326 10.169554-50.002162 44.928511l0.979125-44.8395h-1.179401v46.441706c0-0.556321 0-1.068137 0.133517-1.602206l-0.133517 5.741236 0.133517 79.798734h-0.133517V934.988585a89.011415 89.011415 0 0 1-89.011415 89.011415h-89.011415a88.833392 88.833392 0 0 1-88.633116-85.183924l-0.378298-359.761886h-18.848168 17.535249l0.400552 59.504131c-1.045884-47.665613-7.855257-57.523627-50.714254-59.548636l-80.288296 0.200275a43.59334 43.59334 0 0 1-11.126427-0.845608l-1.045884-0.200276A40.055137 40.055137 0 0 1 0.901762 544.228474c0-0.289287-0.111264-0.600827-0.15577-0.890114a43.103778 43.103778 0 0 1-0.289287-14.241826 48.956278 48.956278 0 0 1 3.315675-12.305828 44.260926 44.260926 0 0 1 7.944269-11.949783c0.244781-0.244781 0.289287-0.556321 0.534068-0.801103L500.411569 17.258646a47.376326 47.376326 0 0 1 2.781607-4.20579 44.505707 44.505707 0 0 1 62.953323 0l0.645333 0.645333 490.897952 489.562782a44.505707 44.505707 0 0 1 0.066759 63.020081zM713.349126 935.300125h21.140211l-21.140211-0.133517v0.178023z m-445.057074 0h21.117958l-21.117958-0.133517v0.178023zM178.034477 638.714091c0.178023 9.145923 0.200276 19.560258 0.200276 31.710317z"
          fill="#0090FF" p-id="4850"></path>
</svg>