<?xml version="1.0" encoding="UTF-8" standalone="no"?>
<!DOCTYPE svg PUBLIC "-//W3C//DTD SVG 1.1//EN"
        "http://www.w3.org/Graphics/SVG/1.1/DTD/svg11.dtd">
<svg class="icon" viewBox="0 0 1024 1024" version="1.1"
     xmlns="http://www.w3.org/2000/svg" width="15" height="15">
    <path
            d="M908.5 482H188.2l250.5-250.5c11.7-11.7 11.7-30.7 0-42.4s-30.7-11.7-42.4 0L94.6 490.8c-11.7 11.7-11.7 30.7 0 42.4L396.3 835c5.9 5.9 13.5 8.8 21.2 8.8 7.7 0 15.4-2.9 21.2-8.8 11.7-11.7 11.7-30.7 0-42.4L188.2 542h720.3c16.6 0 30-13.4 30-30s-13.4-30-30-30z"
            fill="#0e932e"
            stroke="#0e932e"
            stroke-width="80"
            stroke-linejoin="round"
            stroke-linecap="round"
            transform="matrix(-1 0 0 1 1024 0)"/>
</svg>