<?xml version="1.0" standalone="no"?><!DOCTYPE svg PUBLIC "-//W3C//DTD SVG 1.1//EN" "http://www.w3.org/Graphics/SVG/1.1/DTD/svg11.dtd"><svg t="1732515181464" class="icon" viewBox="0 0 1024 1024" version="1.1" xmlns="http://www.w3.org/2000/svg" p-id="4668" xmlns:xlink="http://www.w3.org/1999/xlink" width="15" height="15"><path d="M925.4 640.45a34.61 34.61 0 0 0-34.6 34.6v195.4a20.63 20.63 0 0 1-20.6 20.6H153.7a20.63 20.63 0 0 1-20.6-20.6V675a34.55 34.55 0 1 0-69.1 0v222.9a62.16 62.16 0 0 0 62.1 62.1h771.8a62.16 62.16 0 0 0 62.1-62.1V675a34.59 34.59 0 0 0-34.6-34.55zM488.5 74.15a34.77 34.77 0 0 1 49 0l155.8 155.9A34.54 34.54 0 1 1 644.5 279l-96.9-96.9v577.8a34.6 34.6 0 1 1-69.2 0V182.05L381.5 279a34.58 34.58 0 0 1-48.9-48.9z" p-id="4669" fill="#1296db"></path></svg>