<?xml version="1.0" standalone="no"?><!DOCTYPE svg PUBLIC "-//W3C//DTD SVG 1.1//EN" "http://www.w3.org/Graphics/SVG/1.1/DTD/svg11.dtd"><svg t="1732262643500" class="icon" viewBox="0 0 1024 1024" version="1.1" xmlns="http://www.w3.org/2000/svg" p-id="9135" xmlns:xlink="http://www.w3.org/1999/xlink" width="15" height="15"><path d="M211.88832 79.008H672.00032a48 48 0 0 1 48 48v768a48 48 0 0 1-48 48H64.00032a48 48 0 0 1-48-48V274.88c0-12.736 5.056-24.944 14.064-33.936l147.888-147.872a47.936 47.936 0 0 1 33.936-14.064z" fill="#FAEFDE" p-id="9136"></path><path d="M16.00032 944l-2.352-151.36L709.37632 96.912 720.00032 464 240.00032 944zM13.64832 626.352l547.36-547.36 92 4L16.00032 720zM13.64832 530.352L464.00032 80h48L13.64832 578.352z" fill="#FFF7F0" p-id="9137"></path><path d="M568.03232 207.936l19.808 36.224 36.224 19.808-36.224 19.808L568.03232 320l-19.808-36.224L512.00032 263.968l36.224-19.808zM326.70432 176l13.68 25.024 25.024 13.68-25.024 13.68-13.68 25.024-13.68-25.024L288.00032 214.704l25.024-13.68zM106.36832 672l9.328 17.04 17.04 9.328-17.04 9.328-9.328 17.04-9.328-17.04L80.00032 698.368l17.04-9.328z" fill="#FFFFFF" p-id="9138"></path><path d="M657.95232 366.064l160 160L504.00032 839.968l-160-160z" fill="#F9E3AE" p-id="9139"></path><path d="M705.93632 430.048l104 104-297.952 297.936-104-104z" fill="#F6D397" p-id="9140"></path><path d="M920.11232 423.888l-159.488-159.488 53.936-53.936a48 48 0 0 1 67.888 0l91.6 91.6a48 48 0 0 1 0 67.888l-53.936 53.936z" fill="#ED7899" p-id="9141"></path><path d="M208.00032 80v192H16.00032z" fill="#BBDEF9" p-id="9142"></path><path d="M753.95232 270.048l160 160L808.00032 536l-160-160z" fill="#C2CDE7" p-id="9143"></path><path d="M320.00032 826.288L332.57632 688l88 12.576 12.56 37.712 36.672 18.848L496.00032 851.424h-150.864z" fill="#FAEFDE" p-id="9144"></path><path d="M464.00032 384h64a16 16 0 0 0 0-32h-64a16 16 0 0 0 0 32zM176.00032 384h224a16 16 0 0 0 0-32H176.00032a16 16 0 0 0 0 32zM176.00032 448h288a16 16 0 0 0 0-32H176.00032a16 16 0 0 0 0 32zM320.00032 592a16 16 0 0 0-16-16h-128a16 16 0 0 0 0 32h128a16 16 0 0 0 16-16zM176.00032 544h208a16 16 0 0 0 0-32H176.00032a16 16 0 0 0 0 32zM80.00032 800a16 16 0 0 0-16 16v32a16 16 0 0 0 32 0v-32a16 16 0 0 0-16-16zM160.00032 800a16 16 0 0 0-16 16v32a16 16 0 0 0 32 0v-32a16 16 0 0 0-16-16zM240.00032 800a16 16 0 0 0-16 16v32a16 16 0 0 0 32 0v-32a16 16 0 0 0-16-16zM640.00032 864a16 16 0 0 0 16-16v-32a16 16 0 0 0-32 0v32a16 16 0 0 0 16 16z" fill="#8D6C9F" p-id="9145"></path><path d="M1008.00032 330.512a63.536 63.536 0 0 0-18.752-45.248l-90.512-90.512c-24.176-24.192-66.336-24.192-90.512 0l-44.432 44.432-0.016 0.016-3.712 3.728-8.384 8.384-0.032 0.048-15.648 15.68V112c0-26.464-21.536-48-48-48H218.51232c-21.36 0-41.456 8.32-56.56 23.424l-138.528 138.512A79.536 79.536 0 0 0 0.00032 282.512V912c0 26.464 21.536 48 48 48h640c26.464 0 48-21.536 48-48V629.456L932.70432 432.32l0.016-0.016 56.528-56.528A63.6 63.6 0 0 0 1008.00032 330.512z m-131.92 113.232a15.936 15.936 0 0 0-22.24 0.256l-22.624 22.624a15.952 15.952 0 0 0-0.208 22.304l-22.656 22.704-135.744-135.744 90.416-90.608 135.744 135.744-22.688 22.72zM503.29632 817.36l-7.248-69.888a16 16 0 0 0-15.92-14.352H450.88032v-22.64l85.824-85.824a15.984 15.984 0 1 0-22.624-22.624l-85.104 85.104-60.624-6.384 281.632-282.224 135.744 135.744-282.432 283.088z m-107.76 28.176l-57.008-57.008 9.04-77.776 71.312 7.504v30.848a16 16 0 0 0 16 16h30.832l7.488 72.192-77.664 8.24zM184.57632 110.048c2.272-2.256 4.768-4.272 7.424-6.032V240c0 8.816-7.184 16-16 16H39.98432c1.76-2.64 3.776-5.136 6.08-7.44l138.512-138.512zM704.00032 912c0 8.816-7.184 16-16 16H48.00032c-8.816 0-16-7.184-16-16V288h144c26.464 0 48-21.536 48-48V96h464c8.816 0 16 7.184 16 16v187.104l-64.704 64.848c-0.24 0.208-0.528 0.272-0.752 0.496-0.224 0.224-0.304 0.528-0.512 0.768l-315.824 316.48a16 16 0 0 0-4.56 9.456l-11.776 101.2-11.28 78.944a15.968 15.968 0 0 0 18.112 18.112l78.736-11.248 102.16-10.832c3.648-0.384 7.04-2.016 9.648-4.608L544.00032 821.872V848a16 16 0 0 0 32 0v-32a15.824 15.824 0 0 0-11.152-15.024L704.00032 661.52V912z m262.624-558.864l-45.248 45.248-135.76-135.76 0.816-0.816 0.016-0.016 44.416-44.416c12.096-12.096 33.168-12.096 45.264 0l90.512 90.512c6.032 6.048 9.36 14.08 9.36 22.624s-3.328 16.576-9.376 22.624z" fill="#8D6C9F" p-id="9146"></path><path d="M740.70432 330.864l-22.64 22.624a15.984 15.984 0 1 0 22.624 22.624l22.64-22.624a15.984 15.984 0 1 0-22.624-22.624zM797.28032 387.424l-22.624 22.64a15.984 15.984 0 1 0 22.624 22.624l22.624-22.64a15.984 15.984 0 1 0-22.624-22.624zM627.21632 511.536a15.984 15.984 0 0 0-22.624 0l-45.264 45.248a15.984 15.984 0 1 0 22.624 22.624l45.264-45.248a15.984 15.984 0 0 0 0-22.624z" fill="#8D6C9F" p-id="9147"></path></svg>