<svg t="1769930814282" class="icon" viewBox="0 0 1024 1024" version="1.1" xmlns="http://www.w3.org/2000/svg"
     p-id="11744" width="16" height="16">
    <path d="M898.56 570.368c39.2704-3.0208 71.0144 22.6816 74.0352 61.952 3.0208 40.7552-25.7024 73.984-64.9216 77.0048a69.12 69.12 0 0 1-74.0352-63.488c-3.0208-40.704 24.1664-70.912 64.9216-75.4688z"
          fill="#86DA2F" p-id="11745"></path>
    <path d="M421.376 892.0064c0-39.2192 30.208-69.4272 66.4576-69.4272 36.2496 0 70.9632 33.2288 70.9632 70.9632 0 36.2496-30.208 67.9424-64.9216 69.4784-43.776 0-72.4992-27.1872-72.4992-71.0144z"
          fill="#24C2FF" p-id="11746"></path>
    <path d="M528.5888 451.072c-6.0416 3.072-9.0624-1.536-10.5472-6.0416-55.8592-104.192-39.2704-235.5712 58.88-314.112 25.7024-21.1456 73.984-25.6512 95.1296-4.5056 9.0624 7.5264 10.5984 16.5888 12.0832 27.136 3.072 22.6816 7.5776 45.312 22.6816 63.488 16.5888 19.6096 37.7344 27.136 61.9008 25.6 21.1456 0 42.2912-2.9696 55.8592 21.1968 7.5776 13.568 4.5568 66.4576-7.5264 77.0048-6.0416 4.5056-10.5984 1.536-15.104 0-34.7136-13.568-70.9632-13.568-107.2128-7.5264-12.0832 1.4848-18.1248-1.536-18.1248-15.104-1.536-22.6816-6.0416-43.8272-18.1248-63.488-22.6816-40.7552-64.9216-42.24-92.16-4.5056-22.6304 30.208-28.672 66.4576-34.7136 102.7072-6.0416 31.744-4.5056 64.9216-3.0208 98.1504z"
          fill="#FFCB12" p-id="11747"></path>
    <path d="M566.3744 473.7536c-3.072-4.5568-1.536-9.0624 3.0208-12.0832 86.016-78.5408 214.4256-93.696 314.112-16.64 25.6512 21.1456 42.24 64.9216 28.672 90.624a37.376 37.376 0 0 1-22.6304 18.1248c-21.1456 9.0624-40.8064 18.1248-54.3744 37.7344-13.6192 19.6096-16.64 42.2912-10.5984 66.4576 4.5568 19.6096 12.0832 40.7552-7.5264 58.88-10.5984 10.5984-61.952 19.6608-75.52 10.5984-6.0416-4.5568-4.5056-9.0624-3.0208-15.104 4.5568-37.7856-4.5056-72.4992-18.1248-105.728-4.5056-12.0832-3.0208-18.1248 9.0624-21.1456a128.6656 128.6656 0 0 0 55.8592-31.744c33.28-31.6928 25.7024-72.448-18.0736-90.5728-34.7648-15.104-71.0144-12.0832-105.728-9.0624-33.2288 1.536-64.9216 10.5984-95.1296 19.6608z"
          fill="#86DA2F" p-id="11748"></path>
    <path d="M546.7136 513.024c4.5568-4.608 7.5776-3.072 12.0832 0 99.6864 60.416 151.04 179.712 105.728 295.936-12.0832 30.208-51.3536 60.416-80.0256 52.8896-12.0832-3.072-18.1248-9.0624-24.1664-16.64-13.6192-18.1248-28.672-34.7136-51.3536-42.2912-24.1664-7.5264-45.312-3.0208-66.4576 9.0624-18.1248 10.5984-36.2496 24.1664-58.88 10.5984-13.6192-7.5776-36.2496-54.3744-31.744-69.4784 3.072-6.0416 9.0624-6.0416 15.104-6.0416 37.7856-6.0416 67.9936-24.1664 96.6656-48.3328 9.0624-7.5264 16.64-7.5264 24.1664 3.072 12.0832 18.0736 27.136 33.1776 46.7968 43.776 39.2704 22.6304 77.056 3.0208 81.5616-42.2912 4.5056-37.7856-9.0624-70.9632-21.1456-104.192-13.568-30.208-30.208-58.88-48.3328-86.1184z"
          fill="#24C2FF" p-id="11749"></path>
    <path d="M498.3808 522.0352a224.4096 224.4096 0 0 1-37.7344 84.5824c-54.3744 81.5616-132.864 114.7904-229.5296 105.728-34.7136-3.072-63.4368-31.744-66.4576-60.416a36.5056 36.5056 0 0 1 9.0624-30.208c10.5984-13.6192 19.6608-25.6512 24.1664-42.2912 9.0624-33.2288-3.0208-60.416-27.136-84.5824-33.28-33.1776-28.7232-63.3856 10.5472-87.552 4.5056-3.072 10.5472-6.0416 16.5888-9.0624 9.0624-4.5568 16.5888-4.5568 19.6096 6.0416 13.6192 34.7136 40.8064 60.416 71.0144 81.5104 10.5472 9.0624 10.5472 15.104 1.536 25.7024a112.128 112.128 0 0 0-30.208 70.9632c-3.072 33.2288 16.5888 54.3744 49.8176 54.3744 21.1456 0 40.7552-7.5776 58.88-16.64 46.7968-24.1152 83.0464-58.88 117.76-95.1296 4.5568-1.536 6.0416-4.5056 12.0832-3.0208z"
          fill="#0069DA" p-id="11750"></path>
    <path d="M250.7264 204.9536c3.072 0 10.5984 1.4848 18.1248 2.9696 55.9104 10.5984 90.624-9.0112 108.7488-61.9008 12.0832-34.7136 37.7344-45.312 70.9632-27.136 1.536 0 1.536 1.4848 3.072 1.4848 34.7136 19.6096 34.7136 22.6304 13.568 52.8384-18.1248 24.1664-27.1872 51.3536-31.744 80.0256-3.0208 16.64-9.0624 19.6608-24.1664 13.6192a108.2368 108.2368 0 0 0-75.4688 0c-28.672 9.0624-40.8064 34.7136-31.744 63.4368 12.0832 37.7344 45.312 54.3232 73.984 73.984 28.672 19.6096 61.952 30.208 93.696 43.776 4.5056 1.536 12.032 1.536 10.5472 9.0624-1.536 4.5568-7.5776 4.5568-13.6192 4.5568-67.9424 3.0208-132.864-7.5776-185.7536-52.8896-49.8176-40.7552-86.016-90.624-80.0256-160.0512 4.5568-22.6816 21.1456-39.2704 49.8176-43.776z"
          fill="#FF4649" p-id="11751"></path>
    <path d="M126.9248 629.248c-36.2496 4.5568-72.4992-25.6-75.52-63.3856-3.0208-36.2496 27.1872-72.4992 61.952-75.52 39.2192-4.5568 75.4688 22.6304 78.4896 58.88 1.536 34.7648-21.1456 77.056-64.9216 80.0256z"
          fill="#0069DA" p-id="11752"></path>
    <path d="M761.1904 91.648c37.7344-3.0208 73.984 27.1872 77.0048 64.9728 3.0208 36.2496-27.1872 70.9632-63.4368 73.984-39.2704 3.0208-73.984-25.7024-77.0048-63.4368-3.072-37.7344 24.1664-72.4992 63.4368-75.52z"
          fill="#FFCB12" p-id="11753"></path>
    <path d="M367.0016 120.32c4.5568 39.3216-22.6304 72.5504-63.3856 78.592-34.7648 4.5056-71.0144-24.1664-75.52-57.3952-4.5568-43.8272 19.6096-75.52 60.416-80.0256 37.7344-4.5568 73.984 24.1152 78.4896 58.88z"
          fill="#FF4649" p-id="11754"></path>
</svg>