<svg t="1769930462622" class="icon" viewBox="0 0 1024 1024" version="1.1" xmlns="http://www.w3.org/2000/svg" p-id="4194"
     width="16" height="16">
    <path d="M429.056 471.722667l36.522667 36.181333-36.522667 36.181333H172.032v120.832l-156.672-157.013333 156.672-154.624v118.101333l257.024 0.341334z"
          fill="#932279" p-id="4195"></path>
    <path d="M545.450667 429.056l-36.181334 36.522667-36.181333-36.522667V172.032h-120.832l157.013333-156.672 154.624 156.672h-118.101333l-0.341333 257.024z"
          fill="#EFA724" p-id="4196"></path>
    <path d="M588.117333 545.450667l-36.522666-36.181334 36.522666-36.181333h256.682667v-120.832l156.672 157.013333-156.672 154.624v-118.101333l-256.682667-0.341333z"
          fill="#262577" p-id="4197"></path>
    <path d="M471.722667 588.117333l36.181333-36.522666 36.181333 36.522666v257.024h120.832l-157.013333 156.672-154.624-156.672h118.101333l0.341334-257.024z"
          fill="#9CCD2A" p-id="4198"></path>
    <path d="M162.816 162.816h311.978667v311.978667H162.816V162.816z" fill="#9CCD2A" p-id="4199"></path>
    <path d="M542.037333 162.816h311.978667v311.978667h-311.978667V162.816z" fill="#932279" p-id="4200"></path>
    <path d="M542.037333 542.037333h311.978667v311.978667h-311.978667v-311.978667z" fill="#EFA724" p-id="4201"></path>
    <path d="M162.816 542.037333h311.978667v311.978667H162.816v-311.978667z" fill="#262577" p-id="4202"></path>
</svg>