<svg t="1769931060305" class="icon" viewBox="0 0 1024 1024" version="1.1" xmlns="http://www.w3.org/2000/svg"
     p-id="16303" width="16" height="16">
    <path d="M462.228178 591.258906s-17.547124 18.338723-45.253109 5.87103c0 0-13.457193 4.881531-1.649166 20.449656 0 0 19.658056 7.652129 11.676094 18.800489H356.08787s-17.349224-5.67313-3.562198-20.779488c0 0 7.652129-6.66263 21.768988 3.430264 14.116859 10.026928-2.440765-7.454229-2.440766-26.122785s18.00889-29.025317 32.851382-29.025317 23.28622 25.792952 38.986278 25.792952c15.766025 0 21.109322-2.242865 21.109322-2.242865l-2.572698 3.826064z"
          fill="#E89912" p-id="16304"></path>
    <path d="M577.010114 503.391355s22.428654-2.242865 19.460156-15.304258c-2.242865-10.026928-6.002963-40.041745-38.590479-44.593442s-76.389358 5.079431-87.273851 50.794305c-14.248792 60.029633 44.791342 72.365393 44.791341 101.522644 0 19.130323-37.996779-1.715132-49.211106 1.847065-11.214327 3.562198-43.010243 21.637055-24.07782 44.131676h178.373768s7.652129-0.461766 6.992463-20.911422 34.566514-38.590479 34.566514-38.590479 6.134897-2.440765 2.572699 6.66263-27.574051 15.897958-1.781099 35.556014c0 0 2.110932 7.652129-6.002963 5.343297-8.113896-2.242865-11.34626-14.116859-21.571089-8.245829-10.224828 5.87103 1.978999 16.029891 1.978999 16.029891h87.075952s1.121433-7.652129-8.113895-17.349224c-9.235328-9.763061-3.892031-18.80049 2.242865-19.328222 6.134897-0.461766 43.142176 46.044708 96.839013 46.044708s113.066804-70.320428 48.55144-131.405528c0 0-41.29511-26.188752-64.911164 9.763062-17.547124 26.650519 16.887457 64.977131 23.813953 53.82877 5.013464-8.047929-1.121433-9.037428-10.224827-33.049282s50.464472-23.220254 50.464472 8.575662-32.917348 72.893126-72.167494 46.572441c-48.815306-32.653482-26.254719-52.575404-34.896347-109.570573-2.902532-19.394189-38.326612-109.636539-137.738324-109.636539-6.332796 0-12.797526 4.881531-36.479546 7.784062s-22.428654-0.263867-40.173678 3.892031c-14.974425 3.496231 23.154287 21.768988 37.600979 21.768988s78.764156 9.367261 78.764157 63.855698S624.703988 553.064227 591.588739 553.064227s-85.294853-38.392579-69.726728-65.834697c25.265219-44.593442 43.735876 18.272757 55.148103 16.161825z"
          fill="#E89912" p-id="16305"></path>
    <path d="M156.077047 647.066675c-8.113896-9.235328-32.851382-5.541197-22.626554-28.95935 10.158861-23.418154 33.577015-35.951813 55.346003-29.223218 11.478194 3.562198 22.560588 8.509695 34.170714 11.610127 7.190363 1.913032 16.161824 4.155898 22.296721 1.583199 8.575662-3.628165 18.668556-10.290794 21.637055-18.140823 2.242865-5.936997-3.562198-17.679057-9.301295-23.352187-23.550087-23.220254-48.15564-44.659409-54.81827-80.017522-13.061393-69.330928 29.025317-132.263093 98.620112-144.532887 12.401726-2.176899 25.265219-2.176899 37.798879-3.826065 7.454229-0.989499 15.238292-2.110932 21.834955-5.409263 4.287831-2.176899 10.026928-9.433228 9.037428-12.33576-1.649166-4.815564-7.850029-8.509695-12.797526-11.610127-2.308832-1.451266-6.200863-0.5937-9.367262-0.5937-5.739097-0.065967-11.412227 0.131933-17.151323 0.065967-33.906848-0.461766-43.735876-13.127359-35.885847-40.305611 21.439155 0.3958 41.954777 3.166398 61.678799 0.3958 23.022354-3.166398 28.101784-20.383689 14.314759-38.854345-22.692521-30.278683-48.419507-32.059782-78.434323-1.978999-10.026928-11.082394-19.921922-22.296721-30.14675-33.247182-7.190363-7.784062-6.002963-14.050892 3.760097-17.349224 45.912775-15.370225 88.725118-42.614443 140.113123-37.535012 8.971462 0.857566 18.00889 0.7916 26.848418-0.857566 19.262256-3.628165 22.428654-11.54416 14.842492-28.959351-1.715132-3.957998-3.562198-11.082394 0.7916-14.446692 0.527733-0.3958 1.253366-0.725633 1.253366-0.725633 7.058429-1.715132 12.599626 3.892031 15.238291 8.113896 3.232365 5.27733 2.968498 13.391226 2.440766 20.119822-1.517232 18.536623 3.100432 34.302648 14.512658 49.606906 19.987889 26.782452 35.292147 56.269536 29.487084 91.429749-9.894995 59.435934-61.480899 98.422212-129.558462 102.38021-22.956387 1.319333-46.506474 7.124396-67.879662 15.568125-32.191716 12.665593-51.915738 51.519938-47.825807 85.756619 4.749597 40.041745 27.705985 66.16453 65.702764 73.882626 6.200863 1.253366 12.863493 0.1979 19.328222 0.1979l1.517233-4.683631c-3.694131-2.374799-7.124396-5.343297-11.082394-7.124396-30.080783-13.589126-44.857309-36.677446-43.933776-69.001095 0.7916-27.771951 16.821491-48.94724 48.287573-59.106101 19.724022-6.332796 40.635444-9.235328 61.0851-13.391226 80.479289-16.359724 124.544998-63.921665 133.31856-144.203053 29.75095 30.872383 28.893384 100.994911 8.443728 135.231591-34.830381 58.512401-70.254461 71.112027-157.528313 60.029634-15.502158-1.978999-29.75095-0.7916-36.281646 13.061393-3.628165 7.718096-1.055466 21.175288 3.760098 29.025317 3.232365 5.343297 15.502158 8.113896 23.022354 6.992463 5.079431-0.725633 12.005927-10.026928 12.269793-15.766025 0.263867-5.47523-4.947497-18.00889-14.908459-16.425691-5.936997-2.242865 11.610127-3.562198 13.32526 0.065967 2.044966 4.551697 6.530696 11.214327 11.412227 9.960961 18.668556-4.749597 24.935386 11.74206 24.605553 17.547124-0.989499 16.425691-4.551697 35.687947-12.92946 48.749339-13.391226 20.779489-31.729949 37.996779-58.710301 44.725376-30.93835 7.718096-45.648908 38.854345-40.305611 75.927591H156.077047zM540.002835 168.610707s246.583264-7.124396 330.888616 227.716807c0 0-2.572699 28.563551-38.920311 15.568125-36.347613-12.92946-37.600979-195.920892-291.968305-243.284932zM210.367584 697.399214s202.451588 360.7715 565.13612 112.868904c0 0-163.531276 218.679379-458.731946 79.159956 0 0-119.399601-77.180957-152.448882-164.124975-0.659666-57.127102 46.044708-27.903885 46.044708-27.903885z"
          fill="#E89912" p-id="16306"></path>
    <path d="M364.135798 758.088514l-8.047928-20.713522h-29.750951l-8.047928 20.713522h-5.013464l25.265219-63.921665h5.47523l25.199253 63.921665H364.135798z m-9.499194-24.737486l-9.103395-23.747987c-0.725633-1.913032-1.451266-3.826065-2.110932-5.673131-0.725633-1.913032-1.385299-3.760098-2.110933-5.67313-0.725633 2.044966-1.385299 3.957998-2.044965 5.87103-0.659666 1.847066-1.385299 3.760098-2.176899 5.739097l-9.235328 23.616054h26.782452zM417.832635 734.802293c0 7.718096-1.715132 13.655092-5.211363 17.876957-3.496231 4.155898-8.377762 6.26683-14.644592 6.26683-3.694131 0-6.794563-0.7916-9.433228-2.308832-2.572699-1.517232-4.749597-3.957998-6.398763-7.322296h-0.1979c0.131933 1.847066 0.1979 4.749597 0.1979 8.641629v18.00889h-4.353798v-54.42247c0-2.374799-0.131933-5.607164-0.329833-9.631128h3.826064c0.329833 2.638665 0.527733 5.67313 0.659667 9.037428h0.1979c2.110932-3.694131 4.419764-6.332796 6.992462-7.784062 2.506732-1.451266 5.805063-2.176899 9.763062-2.176899 6.06893 0 10.752561 2.110932 14.050892 6.26683 3.232365 4.221864 4.881531 10.092894 4.88153 17.547123z m-4.419764 0c0-6.66263-1.319333-11.676094-3.892031-15.040391-2.572699-3.364298-6.332796-5.013464-11.280294-5.013464-10.818527 0-16.227791 6.794563-16.227791 20.449655 0 6.596663 1.319333 11.610127 3.892031 15.040392 2.572699 3.430265 6.46473 5.145397 11.610127 5.145397 5.211364 0 9.169362-1.715132 11.808027-5.211364 2.770598-3.562198 4.089931-8.641629 4.089931-15.370225zM461.304645 758.088514h-3.957998l-0.329833-8.773562h-0.1979c-1.847066 3.496231-4.089931 5.936997-6.66263 7.454229-2.572699 1.517232-5.47523 2.242865-8.707595 2.242866-4.683631 0-8.311795-1.121433-10.950461-3.430265s-3.957998-5.47523-3.957997-9.565162c0-4.749597 1.781099-8.311795 5.27733-10.686594 3.562198-2.374799 9.103395-3.628165 16.755524-3.826064l8.377762-0.263867v-2.902531c0-4.683631-0.989499-8.047929-3.034465-10.224828-2.044966-2.176899-4.815564-3.232365-8.377762-3.232365-3.826065 0-6.66263 0.5937-8.575662 1.847066-1.913032 1.253366-3.166398 3.298332-3.892031 6.200863l-4.023964-0.857566c1.121433-3.957998 2.968498-6.728596 5.67313-8.377762 2.638665-1.649166 6.26683-2.440765 10.884494-2.440766 5.27733 0 9.235328 1.385299 11.808027 4.155898 2.572699 2.770598 3.892031 7.058429 3.892031 12.92946v29.75095z m-18.932423-2.770599c2.506732 0 4.815564-0.659666 6.992463-2.044965 2.176899-1.319333 3.957998-3.232365 5.409263-5.739097 1.451266-2.440765 2.176899-4.947497 2.176899-7.388263v-5.67313l-7.981962 0.263867c-6.530696 0.1979-11.14836 1.187399-13.852992 2.968498s-4.089931 4.485731-4.089932 8.179862c0 2.902532 0.923533 5.145397 2.770599 6.794563 1.781099 1.781099 4.683631 2.638665 8.575662 2.638665zM472.980738 735.132127c0-7.652129 1.583199-13.589126 4.749598-17.810991s7.586162-6.26683 13.391226-6.266829c3.298332 0 6.002963 0.3958 8.179862 1.253365 2.176899 0.857566 3.892031 2.044966 5.145397 3.694132 1.253366 1.649166 2.176899 3.957998 2.770598 6.992463l-4.419764 0.659666c-0.527733-2.308832-1.187399-4.089931-2.110932-5.211364-0.923533-1.187399-2.110932-2.044966-3.628165-2.704632-1.517232-0.659666-3.562198-0.989499-6.002963-0.989499-9.103395 0-13.589126 6.794563-13.589126 20.383689 0 13.457193 4.551697 20.185789 13.589126 20.185788 6.926496 0 11.016427-3.034465 12.13786-9.169361l4.221864 0.659666c-1.385299 8.113896-6.794563 12.203827-16.359724 12.203827-5.87103 0-10.356761-2.044966-13.457193-6.06893-3.100432-4.089931-4.617664-10.026928-4.617664-17.81099zM547.984797 758.088514v-27.705985c0-5.079431-0.923533-8.971462-2.836565-11.610127-1.913032-2.638665-4.947497-3.957998-9.103395-3.957998-2.902532 0-5.409264 0.725633-7.718096 2.176899-2.242865 1.451266-4.023964 3.562198-5.211364 6.332797-1.253366 2.770598-1.847066 6.002963-1.847065 9.763061v25.067319h-4.353798v-65.900663h4.353798v20.119822c0 2.110932-0.131933 5.079431-0.329834 8.839529h0.1979c1.253366-3.100432 3.232365-5.541197 5.87103-7.322296 2.638665-1.781099 5.805063-2.704632 9.499195-2.704632 5.343297 0 9.301295 1.517232 11.873994 4.551697 2.572699 3.034465 3.892031 7.718096 3.892031 13.984926v28.431617h-4.287831zM568.434452 735.527926c0 6.398763 1.319333 11.280294 4.023965 14.644592 2.638665 3.364298 6.530696 5.079431 11.54416 5.079431 3.232365 0 5.936997-0.659666 8.179862-1.978999s4.155898-3.562198 5.739097-6.794563l3.496231 1.781099c-1.913032 3.760098-4.287831 6.46473-7.124396 8.179862s-6.332796 2.572699-10.356761 2.572699c-6.66263 0-11.676094-2.110932-14.974425-6.26683s-4.947497-10.158861-4.947497-18.074857c0-5.079431 0.7916-9.433228 2.374799-12.929459 1.583199-3.496231 3.826065-6.134897 6.728596-7.981963 2.902532-1.781099 6.398763-2.704632 10.554661-2.704631 12.53366 0 18.80049 7.784062 18.800489 23.28622v1.253366h-34.038781z m15.106358-20.779488c-4.749597 0-8.377762 1.451266-10.884494 4.419764-2.572699 2.902532-3.892031 7.256329-4.155897 12.863493h29.487083c-0.3958-11.54416-5.27733-17.283257-14.446692-17.283257zM675.36636 758.088514l-23.616054-32.917349-6.728596 7.190363v25.726986H640.535979v-63.921665h4.551697v32.983315l28.629518-32.983315h5.607163l-24.275719 27.705985 25.924885 36.21568h-5.607163zM686.250854 775.965471c-1.385299 0-2.572699-0.131933-3.628165-0.329834v-3.957997c1.055466 0.1979 2.176899 0.263867 3.430265 0.263866 1.781099 0 3.298332-0.461766 4.551697-1.319332 1.253366-0.857566 2.440765-1.913032 3.628165-3.100432 1.121433-1.187399 2.440765-3.496231 4.023964-6.926496l0.9895-2.440766-18.20679-46.242607h4.617664l11.214327 28.95935c1.847066 4.815564 3.430265 9.235328 4.683631 13.12736 0.527733-1.451266 0.989499-2.836565 1.451266-4.089931 0.461766-1.253366 1.583199-4.221864 3.430264-9.037429l11.280294-28.95935h4.551698l-19.987889 49.870772c-2.374799 5.607164-4.815564 9.367261-7.190363 11.280294-2.506732 1.978999-5.409264 2.902532-8.839528 2.902532zM730.052696 758.088514v-65.96663h4.287831v65.96663h-4.287831zM749.117052 698.65258v-6.530696h4.287831v6.530696h-4.287831z m0 59.435934v-46.110675h4.287831v46.110675h-4.287831zM799.251691 758.088514v-27.705985c0-5.079431-0.923533-8.971462-2.836565-11.610127-1.913032-2.638665-4.947497-3.957998-9.169362-3.957998-4.485731 0-8.113896 1.649166-10.75256 4.947498s-4.023964 7.718096-4.023965 13.259292v25.06732h-4.353797v-35.885847c0-1.715132 0-3.430265-0.065967-5.079431s-0.131933-3.364298-0.1979-5.07943h3.694131c0.3958 4.419764 0.659666 7.520196 0.659667 9.169362h0.1979c1.319333-3.100432 3.298332-5.541197 5.87103-7.322296 2.638665-1.781099 5.805063-2.704632 9.499194-2.704632 5.343297 0 9.301295 1.517232 11.873994 4.551697 2.572699 3.034465 3.892031 7.718096 3.892031 13.984926v28.431617h-4.287831z"
          fill="#E89912" p-id="16307"></path>
    <path d="M829.596341 696.673581v14.116859h-1.055466v-14.116859h-4.881531v-0.923533h10.884494v0.923533h-4.947497zM849.98003 710.79044v-11.74206c0-0.3958 0-1.121433 0.065966-2.242866-0.131933 0.3958-0.329833 0.857566-0.461766 1.253366-0.1979 0.3958-0.329833 0.857566-0.527733 1.253366l-4.617664 11.412227h-1.121433l-4.881531-11.74206c-0.131933-0.3958-0.263867-0.725633-0.461766-1.121433-0.131933-0.3958-0.263867-0.725633-0.3958-1.121432 0 0.461766 0.065967 0.923533 0.065967 1.385299v12.599626h-1.055466v-15.106358h1.517232l4.551698 10.950461c0.3958 1.055466 0.7916 2.044966 1.187399 3.100431 0.1979-0.527733 0.3958-1.055466 0.5937-1.517232 0.1979-0.527733 0.3958-0.989499 0.593699-1.517233l4.419765-10.95046h1.517232v15.106358h-0.989499z"
          fill="#E89912" p-id="16308"></path>
</svg>