<svg t="1769931617078" class="icon" viewBox="0 0 1024 1024" version="1.1" xmlns="http://www.w3.org/2000/svg"
     p-id="23490" width="16" height="16">
    <path d="M512 512m-512 0a512 512 0 1 0 1024 0 512 512 0 1 0-1024 0Z" fill="#F9B323" p-id="23491"></path>
    <path d="M474.631642 363.283104c-0.878806 1.986866-1.734687 3.018507-2.56 3.018508-0.970507 0.198687-1.482507-0.343881-1.482508-1.604776 0-2.56 1.910448-4.126567 5.693135-4.77612h2.995582a5.295761 5.295761 0 0 0-4.646209 3.362388z m27.250627-0.970507a4.753194 4.753194 0 0 0-5.234627-1.429015c4.783761-2.330746 7.970388-2.13206 9.567522 0.626627 0.59606 1.283821 0.282746 2.223761-0.886448 2.850388-0.825313 0.229254-1.96394-0.458507-3.438806-2.048zM398.442985 501.011104c-0.557851 1.299104-1.001075 2.628776-1.344955 3.996657-0.374448 1.482507-0.932299 2.911522-1.650627 4.26412a31.721075 31.721075 0 0 1-2.980299 4.164776c-1.398448 2.101493-1.490149 3.385313-0.290388 3.813253 0.794746 0.198687 2.048-0.573134 3.729194-2.254328a15.971343 15.971343 0 0 0 4.355821-7.947463c0.145194-0.649552 0.343881-1.283821 0.59606-1.902806a7.061015 7.061015 0 0 0 0.603702-2.705194v-0.970507l-0.290389-0.764179c-0.198687-0.542567-0.512-0.764179-0.909373-0.657194-0.794746-0.198687-1.421373 0.145194-1.818746 0.970507zM639.740179 600.797612c0.794746-3.163701 1.528358-6.098149 2.246687-8.742209 0.687761-2.621134 1.169194-5.379821 1.482507-8.253134 0.282746-2.850388 0.59606-5.127642 0.909373-6.839403 0.282746-1.681194 0.343881-4.073075 0.145194-7.12215-0.152836-2.063284-0.244537-4.126567-0.290388-6.205134 0-1.054567-0.366806-3.385313-1.046925-6.976955-0.443224-2.17791-0.840597-4.355821-1.199761-6.549015-0.458507-2.64406-0.962866-5.288119-1.505433-7.916896l-1.627702-8.428895c-1.986866-10.163582-6.694209-21.068418-14.091462-32.745075-7.412537-11.64609-14.557612-19.593552-21.557493-23.804179 4.814328 4.210627 10.476896 13.01397 17.087045 26.364179 17.369791 34.311642 22.749612 63.78603 16.139463 88.339105-2.193194 8.482388-7.175642 12.922269-14.947344 13.350209-6.205134 0.855881-10.048955-1.10806-11.539104-5.868896-1.505433-4.783761-2.269612-13.602388-2.384239-26.53994a162.227582 162.227582 0 0 0-3.446448-33.998328 218.860896 218.860896 0 0 0-5.838328-21.931941c-1.528358-4.967164-3.484657-9.81206-5.838328-14.458268-1.421373-2.674627-2.972657-5.272836-4.638568-7.802269a31.637015 31.637015 0 0 0-3.874388-4.753194c-0.764179-0.733612-1.505433-1.474866-2.246686-2.223761a214.535642 214.535642 0 0 0-9.284776-32.745075c-3.392955-8.688716-6.319761-14.611104-8.826269-17.805373-2.598209-3.316537-4.944239-6.816478-7.030448-10.469254a38.361791 38.361791 0 0 1-4.508657-12.708298c-0.794746-4.432239-0.198687-10.102448 1.795821-16.995344 1.994507-6.892896 2.445373-12.135164 1.375523-15.742089-1.115701-3.591642-5.555582-6.266269-13.334926-7.947463a56.870209 56.870209 0 0 1-13.327283-5.700776c-5.891821-3.186627-9.422328-4.890746-10.62209-5.12-1.589493-0.206328-2.705194-2.934448-3.301253-8.260776a33.203582 33.203582 0 0 1 2.39188-16.177672c2.193194-5.525015 5.807761-8.367761 10.790209-8.597015 7.38197-0.626627 12.479045 2.56 15.268299 9.536956 2.789254 7.007522 3.186627 13.159164 1.192119 18.454925-2.193194 4.01194-2.391881 6.831761-0.59606 8.40597 1.795821 1.589493 4.783761 1.642985 8.971463 0.16812 2.590567-0.855881 3.897313-4.676776 3.897313-11.447403v-11.768359a73.926687 73.926687 0 0 0-4.042507-15.856716 25.546507 25.546507 0 0 0-13.327284-14.465911 40.66197 40.66197 0 0 0-8.085015-2.39188c-21.358806 1.711761-30.215642 15.894925-26.624 42.564776 0 3.194269-0.114627 4.791403-0.282746 4.791403-1.826388-1.910448-4.760836-3.018507-8.83391-3.331821a41.663045 41.663045 0 0 0-9.903761 0.145194c-2.483582 0.420299-4.019582-0.091701-4.615642-1.566567 0.198687-12.07403-1.421373-21.641552-4.814329-28.618508-3.385313-6.976955-7.855761-10.599164-13.464835-10.820776-5.387463-0.198687-9.51403 2.705194-12.417911 8.742209a50.344119 50.344119 0 0 0-4.95188 18.905791c-0.206328 3.186627 0.168119 7.114507 1.046925 11.760717 0.917015 4.669134 2.193194 8.627582 3.897313 11.928836 1.719403 3.278328 3.255403 4.699701 4.646209 4.279403 2.139701-0.771821 3.866746-2.376597 4.783761-4.447523 0.802388-1.910448 0.091701-2.766328-2.101492-2.567642-1.429015 0-2.934448-1.505433-4.646209-4.585074a24.316179 24.316179 0 0 1-2.842746-10.645015 20.044418 20.044418 0 0 1 2.705194-11.768358c1.986866-3.178985 5.379821-4.661493 10.163582-4.432239 3.415881 0 6.090507 2.216119 8.085015 6.663642 1.994507 4.432239 2.965015 8.566448 2.850388 12.379701 0.015284 2.34603-0.12991 4.684418-0.42794 7.007522-4.416955 3.163701-7.488955 6.266269-9.284777 9.200717a25.401313 25.401313 0 0 1-8.253134 7.458388c-2.093851 1.253254-4.134209 2.582925-6.128716 3.989015-2.292537 2.384239-3.889672 5.349254-4.638568 8.566448-0.481433 2.766328 0.252179 4.676776 2.246687 5.731343 2.789254 1.704119 5.295761 3.752119 7.488955 6.205134 2.170269 2.414806 3.790328 4.439881 4.783761 6.037015 0.993433 1.589493 2.850388 2.957373 5.525015 4.126567 2.705194 1.146269 6.235701 1.849313 10.62209 2.048 9.399403 0.42794 19.562985-1.138627 30.559522-4.753194 2.26197-0.825313 4.562149-1.566567 6.885254-2.216119 4.187701-1.283821 7.634149-2.399522 10.316418-3.339463a58.199881 58.199881 0 0 0 8.818627-4.126567c2.582925-1.23797 4.760836-3.171343 6.296836-5.578507 1.795821-2.965015 3.790328-3.820896 5.97588-2.537075 0.993433 0.611343 1.696478 1.581851 1.971582 2.705194 0.282746 1.146269 0 2.445373-0.917015 3.820896-0.878806 1.360239-2.56 2.384239-4.921313 3.010865-3.989015 1.283821-9.659224 3.561075-16.941851 6.839403l-13.617671 6.174567c-8.765134 4.050149-15.772657 6.464955-20.953791 7.320836-4.982448 1.054567-12.876418 0.855881-23.63606-0.626627-1.986866-0.42794-2.903881-0.229254-2.705194 0.626627 0.198687 0.855881 1.879881 2.850388 5.066507 6.037015 5.013015 4.867821 11.676657 7.206209 20.074985 7.007522 3.66806-0.282746 7.290269-1.031642 10.767284-2.254328 3.698627-1.222687 7.29791-2.712836 10.790209-4.43988 3.392955-1.711761 6.724776-3.561075 10.02603-5.555583 3.301254-2.017433 6.289194-3.813254 8.994388-5.410388 2.674627-1.589493 5.127642-2.842746 7.320836-3.813253 2.216119-0.93994 3.958448-1.222687 5.242268-0.794747 1.306746 0.42794 2.162627 1.589493 2.56 3.499941a4.126567 4.126567 0 0 1-0.282746 1.421373 4.126567 4.126567 0 0 1-1.222687 1.597134 22.214687 22.214687 0 0 1-4.332895 3.018508 38.155463 38.155463 0 0 1-2.705194 1.421373c-0.687761 0.343881-1.711761 0.855881-2.98794 1.597134-0.917015 0.534925-1.864597 1.016358-2.850388 1.421373a134.694209 134.694209 0 0 0-20.22018 14.015045c-7.855761 6.342687-14.519403 10.904836-19.868656 13.663522-5.41803 2.766328-10.285851 2.850388-14.672239 0.290388-4.210627-2.307821-10.469254-10.056597-18.875224-23.185194-4.386388-6.549015-6.892896-8.879761-7.488955-6.976955-0.236896 1.039284-0.336239 2.101493-0.282746 3.163702 0 5.295761-1.513075 11.279284-4.508657 17.942925a199.450746 199.450746 0 0 1-8.818627 17.652537 57.695522 57.695522 0 0 0-6.266269 18.454926 28.473313 28.473313 0 0 0 3.415881 20.021492c-4.585075 1.245612-10.820776 10.813134-18.707105 28.580299-7.886328 17.805373-12.616597 32.752716-14.236656 44.826746a233.502567 233.502567 0 0 0-0.427941 21.924299c0.114627 10.790209-0.458507 17.02591-1.650626 18.737671-1.604776 5.097075-4.508657 5.410388-8.688717 0.970508-6.380896-6.579582-9.964896-16.521552-10.759642-29.902329-0.405015-5.922388 0-11.844776 1.19212-17.767164 0.794746-4.050149 0.687761-5.960597-0.282747-5.731343l-1.222686 1.604776c-7.183284 13.755224-6.189851 31.31606 2.980298 52.728358 1.001075 2.567642 3.515224 5.50209 7.488956 8.887403 3.996657 3.415881 6.388537 5.525015 7.183283 6.350329 3.989015 4.898388 14.381851 14.46591 31.147941 28.763701 16.773731 14.290149 26.02794 22.405731 27.823761 24.316179 3.224836 3.209552 5.104716 7.527164 5.272836 12.07403a20.502925 20.502925 0 0 1-4.218269 13.671164 18.340299 18.340299 0 0 1-13.61003 7.313194c1.589493 3.163701 4.470448 7.89397 8.681075 14.152597 4.187701 6.266269 6.976955 11.959403 8.375403 17.148179 1.390806 5.181134 2.109134 12.639522 2.109134 22.405732 9.170149-5.097075 9.880836-14.832716 2.078567-29.245135a28.16 28.16 0 0 0-3.133134-5.097074 143.031403 143.031403 0 0 1-2.850388-3.782687c-0.59606-0.855881-0.794746-1.513075-0.59606-1.941015 0.565493-1.054567 1.879881-2.048 3.874388-3.018507 1.986866-0.93994 3.981373-0.687761 5.975881 0.802388 9.200716 11.019463 25.775761 14.832716 49.717492 11.447403 26.53994-3.194269 44.200119-12.387343 52.965254-27.655642 4.615642-8.054448 7.97803-11.218149 10.194149-9.536955 2.391881 1.283821 3.423522 6.778269 2.995582 16.51391-0.198687 5.295761-2.506507 15.039045-6.892895 29.245135-1.795821 4.867821-2.391881 8.826269-1.795821 11.936477 0.573134 3.041433 2.98794 4.69206 7.183283 4.890746 0.588418-4.01194 2.040358-12.150448 4.355821-24.453731 2.269612-12.272716 3.614567-21.817313 4.034866-28.595582 0.405015-4.470448-0.282746-12.242149-1.96394-23.345672a179.337552 179.337552 0 0 1-2.21612-30.842268c0.198687-9.399403 2.47594-16.888358 6.862329-22.405732 3.018507-3.820896 8.085015-5.700776 15.283582-5.700776 0.206328-7.855761 3.652776-13.464836 10.316418-16.857791a35.305075 35.305075 0 0 1 21.725612-3.331821c7.771701 1.146269 13.755224 3.530507 17.935283 7.12215 0-3.790328-5.494448-8.253134-16.452776-13.327284zM467.448358 341.809672c-1.10806-2.766328-2.277254-4.355821-3.438806-4.753194-1.795821-0.42794-2.712836 0.282746-2.712836 2.216119 0.405015 1.054567 0.917015 1.711761 1.513075 1.910448 1.986866 0 2.674627 1.597134 2.078567 4.753194-0.573134 4.279403 0.198687 6.380896 2.422448 6.380895 0.565493 0 0.878806-0.343881 0.878806-0.970507 0.634269-3.186627 0.38209-6.487881-0.741254-9.536955zM591.703881 410.287761a8.543522 8.543522 0 0 0-3.897314-1.597134 10.851343 10.851343 0 0 1-4.332895-1.711761 12.899343 12.899343 0 0 1-2.842747-2.56 83.142687 83.142687 0 0 1-3.759761-4.615642 6.610149 6.610149 0 0 0-1.199761-1.276179c-0.198687-0.08406-0.565493 0.053493-1.192119 0.481433-2.789254 3.415881-2.109134 8.000955 2.109134 13.808716 4.18006 5.838328 8.085015 9.170149 11.669015 10.02603 1.795821 0.198687 3.247761-0.657194 4.332895-2.56 1.100418-1.925731 1.474866-4.18006 1.054568-6.350328a6.549015 6.549015 0 0 0-1.941015-3.645135z m-51.337553-63.984716a12.532537 12.532537 0 0 0-1.513074-6.212776 11.760716 11.760716 0 0 0-3.270687-3.981373c-1.222687-0.855881-2.109134-1.146269-2.705194-0.939941-2.789254 0.198687-3.507582 0.93994-2.109134 2.21612l1.192119 0.657194c2.827463 0.855881 4.615642 4.126567 5.410388 9.85791 0 0.618985 0.802388 0.389731 2.391881-0.657194l0.573134-0.93994h0.030567z m15.405851-75.638448a11.844776 11.844776 0 0 0-2.674627-2.246687c-0.962866-0.626627-1.910448-1.260896-2.850388-1.910447-3.018507-3.15606-5.410388-4.753194-7.206209-4.753194-1.795821 0.198687-2.934448 0.993433-3.41588 2.368955a7.320836 7.320836 0 0 0-0.282747 4.126567 7.603582 7.603582 0 0 1-0.175761 3.981373 10.278209 10.278209 0 0 1-1.818746 3.331821c-0.703045 0.886448-1.299104 1.83403-1.795821 2.850388-0.198687 0.573134 0.114627 1.421373 0.917015 2.735761 0.794746 0.626627 1.589493 0.626627 2.384239 0 0.802388-0.657194 1.910448-1.597134 3.301253-2.850388 1.306746-1.222687 2.827463-2.193194 4.47809-2.873313 0.198687-0.229254 1.10806-0.313313 2.705194-0.313314 1.520716 0 3.033791-0.21397 4.493373-0.657194 1.398448-0.42794 2.277254-1.138627 2.674627-2.216119 0-0.42794-0.229254-0.947582-0.733612-1.574209z m179.2 435.513313c2.185552 2.651701 3.385313 5.181134 3.591642 7.63415 0.183403 2.399522-0.076418 4.814328-0.779463 7.114507a16.659104 16.659104 0 0 1-4.608 7.007523c-2.239045 2.193194-4.585075 4.264119-7.030448 6.205134a74.079522 74.079522 0 0 1-9.002029 5.868895 387.591642 387.591642 0 0 1-18.997493 10.163582c-3.813254 1.910448-6.495522 3.278328-8.085015 4.126568a157.757134 157.757134 0 0 0-25.630567 17.805373c-9.452896 7.825194-16.995343 14.603463-22.581493 20.327164-3.385313 3.415881-10.163582 5.471522-20.357731 6.212776-10.163582 0.733612-19.081552-0.802388-26.624-4.615642a26.058507 26.058507 0 0 1-8.826269-7.458388 41.60191 41.60191 0 0 1-4.959522-8.115582c-0.993433-2.338388-3.186627-4.386388-6.57194-6.189851-3.423522-1.788179-8.092657-2.812179-14.068538-3.010865a1768.929433 1768.929433 0 0 0-38.927283-0.313314c-3.820896 0-9.483463 0.145194-17.087045 0.458508-7.573015 0.336239-13.357851 0.565493-17.369791 0.794746a65.092776 65.092776 0 0 0-23.773612 4.783761 53.737075 53.737075 0 0 0-16.032478 9.536955 57.77194 57.77194 0 0 1-13.01397 9.055523 31.468896 31.468896 0 0 1-16.009552 3.645134c-5.777194-0.198687-16.857791-3.49994-33.226507-9.85791a293.956776 293.956776 0 0 0-59.002269-16.68203 701.44 701.44 0 0 1-14.954985-2.842746 143.512836 143.512836 0 0 1-11.814209-3.018508 31.980896 31.980896 0 0 1-10.048955-4.615642 15.321791 15.321791 0 0 1-5.07415-6.205134c-1.986866-4.844896-1.306746-11.90591 2.109135-21.129552 3.392955-9.200716 5.181134-14.97791 5.379821-17.316299a52.369194 52.369194 0 0 0-1.19212-12.700656 252.156179 252.156179 0 0 0-2.98794-13.525971 42.564776 42.564776 0 0 1-1.375522-11.592597c0.122269-3.813254 1.146269-6.656 3.133134-8.566447 2.850388-2.567642 8.520597-4.050149 17.087045-4.470448 8.57409-0.42794 14.557612-1.711761 17.942925-3.820896 6.006448-3.813254 10.194149-7.511881 12.608955-11.103522 2.399522-3.614567 3.591642-9.024955 3.591642-16.231164 4.187701 15.466985 0.993433 26.715701-9.590448 33.685015-6.380896 4.248836-14.672239 5.838328-24.835821 4.783761-6.801194-0.649552-11.103522 0.405015-12.899343 3.163701-2.56 3.186627-2.078567 9.223642 1.513075 18.111045 0.397373 1.283821 1.192119 3.186627 2.39188 5.731343 1.192119 2.552358 2.048 4.432239 2.56 5.71606 0.626627 1.757612 1.069851 3.568716 1.337314 5.410388 0.389731 2.307821 0.489075 4.646209 0.282746 6.976955 0 3.186627-1.704119 8.375403-5.066507 15.573971-3.415881 7.206209-4.783761 12.272716-4.210627 15.268298 0.59606 3.591642 4.294687 6.342687 11.103522 8.253134 3.989015 1.253254 12.41791 3.217194 25.286687 5.868896 12.868776 2.64406 22.780179 4.814328 29.787701 6.518448 4.783761 1.283821 12.150448 3.591642 22.153552 6.976955 9.964896 3.392955 18.225672 5.838328 24.682986 7.320836 6.495522 1.482507 12.020537 1.910448 16.605611 1.283821 8.597015-1.283821 15.031403-4.279403 19.333732-8.917971 4.050149-4.096 6.495522-9.51403 6.892895-15.260656a61.111403 61.111403 0 0 0-2.277253-18.569552 92.748418 92.748418 0 0 0-5.670209-16.513911 236.719761 236.719761 0 0 0-5.975881-11.615522c-24.14806-40.272239-41.005851-65.895164-50.60394-76.914627-13.556537-15.665672-24.835821-19.937433-33.830209-12.700657-2.193194 1.910448-3.698627 0.282746-4.501015-4.783761a56.381134 56.381134 0 0 1-0.565493-12.07403c0.168119-6.121075 1.169194-11.64609 2.957373-16.51391 1.795821-4.875463 4.187701-9.85791 7.206209-14.954985 2.98794-5.066507 5.181134-9.506388 6.549015-13.327284 1.627701-4.470448 4.279403-12.07403 7.97803-22.894806 3.66806-10.820776 6.602507-19.07391 8.826269-24.774687 2.193194-5.693134 5.181134-12.181015 8.971463-19.356656 3.782687-7.236776 7.687642-12.960478 11.669014-17.171105 21.93194-30.299701 34.311642-50.970746 37.139105-61.997851-2.391881-23.720119-3.989015-56.549254-4.814328-98.525611-0.397373-19.050985 1.986866-35.075821 7.206209-48.120359 5.181134-13.01397 15.772657-24.094567 31.713432-33.203582C477.489672 231.523343 487.882507 229.299582 500.842985 229.299582c10.591522-0.229254 21.152478 1.222687 31.744 4.271761 10.568597 3.072 19.456 7.488955 26.631642 13.212657 11.386269 8.887403 20.502925 21.756179 27.388179 38.61397 6.892896 16.804299 9.827343 32.462328 8.826269 46.844179-0.993433 20.128478 1.994507 42.79403 9.002029 68.027224 6.778269 23.918806 20.044418 47.012299 39.813732 69.249911 10.958328 12.532537 20.900299 29.787701 29.78006 51.826626 8.887403 22.008358 14.809791 42.259104 17.805373 60.683463 1.589493 10.392836 2.101493 19.333731 1.505432 26.853254-0.603701 7.519522-1.795821 13.388418-3.591641 17.652537-1.795821 4.218269-3.782687 6.556657-5.975881 6.976955-1.994507 0.42794-4.355821 2.422448-7.068657 6.037015-2.674627 3.591642-5.379821 7.351403-8.085015 11.279284a37.444776 37.444776 0 0 1-12.104597 10.652657c-5.410388 3.15606-11.470328 4.661493-18.279164 4.43988-3.186627-0.152836-6.342687-0.687761-9.399403-1.597134a14.809791 14.809791 0 0 1-6.747701-4.271761 58.375642 58.375642 0 0 1-4.042508-4.921314 43.940299 43.940299 0 0 1-3.41588-6.526089 92.007164 92.007164 0 0 1-2.705194-6.174567c-4.416955-7.863403-8.482388-11.019463-12.272717-9.536956-3.820896 1.45194-6.610149 6.656-8.40597 15.543403-1.788179 8.910328-1.069851 19.196179 2.109134 30.842269 3.989015 14.802149 4.103642 35.480836 0.290389 61.959642-1.994507 13.755224-0.198687 24.407881 5.410388 31.950328 5.578507 7.519522 12.868776 11.019463 21.840238 10.476896 8.971463-0.565493 17.453851-4.294687 25.454806-11.271642 11.768358-10.392836 20.709254-17.423284 26.769194-21.129552 6.090507-3.706269 16.429851-8.230209 31.010388-13.525971 10.560955-3.820896 18.225672-7.687642 23.04-11.592597 4.783761-3.927881 6.633075-7.565373 5.517374-10.958328a17.942925 17.942925 0 0 0-7.458388-9.055522 70.449672 70.449672 0 0 0-15.436418-7.46603c-6.549015-2.330746-11.500896-7.397254-14.80215-15.260657a53.538388 53.538388 0 0 1-4.501015-23.062925c0.282746-7.488955 1.849313-12.532537 4.638568-15.092538 0.21397 10.62209 2.506507 21.114269 6.755343 30.872836 1.474866 3.15606 3.530507 6.174567 6.113433 9.047881 2.598209 2.850388 4.707343 4.867821 6.266268 6.037015 1.627701 1.146269 3.759761 2.56 6.464956 4.126567 2.705194 1.597134 4.355821 2.598209 4.959522 3.018507 3.981373 2.567642 7.061015 5.127642 9.284776 7.802269v0.030567z"
          fill="#555555" p-id="23492"></path>
</svg>