<svg t="1769931122557" class="icon" viewBox="0 0 1058 1024" version="1.1" xmlns="http://www.w3.org/2000/svg"
     p-id="18283" width="16" height="16">
    <path d="M1017.582933 405.7088v5.700267c0 2.833067-2.8672 11.400533-2.8672 14.2336v2.833066c-2.8672 2.833067-2.8672 8.533333-5.7344 11.400534-8.6016 8.533333-22.9376 14.2336-43.008 22.766933-31.5392 14.2336-83.182933 22.766933-131.8912 22.766933-17.2032 0-34.4064-2.833067-48.7424-2.833066-45.8752-5.700267-77.4144-8.533333-86.016 31.300266-8.6016 51.234133 40.1408 113.902933 40.1408 113.902934v2.8672c-2.8672 0-80.2816-34.2016-83.1488-37.034667l-2.8672-2.833067-2.8672-2.8672c-5.7344-5.700267-17.2032-17.066667-40.1408-45.568-45.8752-54.101333-100.352-59.767467-140.4928-48.401066-11.4688 2.833067-22.9376 8.533333-31.5392 17.066666-22.9376 19.933867-20.0704 62.634667-17.2032 79.735467 2.8672 17.066667 2.8672 19.933867 2.8672 19.933867v2.833066l-65.9456-31.3344-2.8672-11.3664c-2.8672-5.7344-2.8672-14.267733-5.7344-22.801066-22.9376-59.8016-74.5472-102.5024-129.024-113.902934-37.2736-5.700267-106.0864-8.533333-143.36 62.634667-14.336 28.4672-14.336 65.467733 2.8672 96.802133 17.2032 31.300267 48.7424 54.101333 83.1488 56.968534 34.4064 2.833067 63.0784-5.7344 77.4144-22.801067 14.336-19.933867 17.2032-45.568 8.6016-68.334933-11.4688-22.801067-28.672-37.000533-54.4768-37.000534-17.2032-2.833067-31.5392 5.700267-37.2736 14.2336-2.8672 2.8672-2.8672 5.700267-2.8672 14.267734 0 17.066667 17.2032 22.766933 20.0704 22.766933 0 0 5.7344 0 11.4688-2.833067h5.7344c14.336-2.8672 25.8048 5.666133 28.672 17.066667v5.700267c0 8.533333-2.8672 14.2336-11.4688 19.933866-2.8672 2.833067-5.7344 2.833067-8.6016 5.700267-8.6016 2.833067-17.2032 5.666133-25.8048 5.666133-28.672 0-65.9456-22.766933-68.8128-68.334933 0-25.6 11.4688-48.401067 34.4064-62.634667 25.8048-17.066667 71.68-22.766933 111.8208 2.833067 51.6096 31.300267 63.0784 91.101867 51.6096 133.8368-20.0704 59.8016-74.5472 91.101867-146.2272 85.4016C105.813333 710.314667 59.972267 684.6464 31.266133 644.778667c-11.4688-17.066667-22.9376-37.000533-25.8048-56.9344-11.4688-45.568 0-93.969067 8.6016-113.902934 28.672-68.334933 80.2816-125.269333 157.696-173.704533l5.7344-2.833067c163.4304-99.6352 278.084267-93.969067 361.233067-91.101866 100.352 2.833067 206.404267 37.000533 220.740267 42.7008V217.770667c5.7344 0 149.060267 22.766933 209.3056 56.9344 8.6016 5.700267 11.4688 8.533333 14.336 14.2336 17.2032 17.066667 37.2736 88.2688 40.1408 102.5024v2.833066s-2.8672 2.833067-5.7344 2.833067c-14.336 8.533333-45.8752 31.300267-88.8832 28.4672-37.307733-2.833067-86.050133-25.634133-146.2272-62.634667 2.8672 5.700267 14.336 34.167467 17.2032 39.867734 8.6016 5.700267 91.7504 45.533867 131.8912 45.533866 31.5392-17.066667 65.9456-34.167467 80.2816-42.7008h5.802666z"
          fill="#81C242" p-id="18284"></path>
    <path d="M974.574933 323.106133c0-34.167467-25.8048-62.634667-60.245333-62.634666-17.2032 0-31.5392 5.700267-43.008 17.066666-11.4688 11.400533-20.0704 25.634133-20.0704 42.7008 0 34.167467 25.8048 62.634667 60.2112 62.634667 17.237333 0 31.573333-5.700267 43.042133-17.066667 11.4688-11.3664 20.0704-25.6 20.0704-42.7008z"
          fill="#FFFFFF" p-id="18285"></path>
    <path d="M917.1968 277.538133c22.971733 0 43.042133 19.933867 43.042133 45.568 0 11.3664-5.7344 22.766933-14.336 31.300267s-20.104533 11.400533-31.573333 11.400533c-22.9376 0-43.008-19.933867-43.008-45.568 0-11.3664 5.7344-22.766933 14.336-31.300266 8.6016-5.700267 20.0704-11.400533 31.5392-11.400534z"
          fill="#81C242" p-id="18286"></path>
    <path d="M943.035733 311.739733c0-5.700267-8.6016-11.400533-20.104533-11.400533-11.4688 0-20.0704 5.700267-20.0704 11.400533s8.6016 11.3664 20.0704 11.3664c11.502933 2.8672 20.104533-2.833067 20.104533-11.3664z"
          fill="#FFFFFF" p-id="18287"></path>
</svg>